<svg xmlns="http://www.w3.org/2000/svg" fill="#a8b2d1" viewBox="0 0 24 24" width="22px" height="22px"><path d="M 10 1 A 1.0001 1.0001 0 0 0 9.2929688 1.2929688 L 6.3808594 4.2050781 A 1.0001 1.0001 0 0 0 6.1894531 4.3964844 L 1.2929688 9.2929688 A 1.0001 1.0001 0 0 0 1.0019531 10.195312 C 1.0017924 10.203299 1 10.21073 1 10.21875 L 1 21.835938 C 1 22.469062 1.530938 23 2.1640625 23 L 13.78125 23 C 13.789932 23 13.797997 22.998235 13.806641 22.998047 A 1.0001 1.0001 0 0 0 14.707031 22.707031 L 19.607422 17.806641 A 1.0001 1.0001 0 0 0 19.796875 17.617188 L 22.707031 14.707031 A 1.0001 1.0001 0 0 0 23 14 L 23 2 A 1.0001 1.0001 0 0 0 22 1 L 10 1 z M 7.4140625 6 L 17.560547 6 C 17.815505 6 18 6.1844951 18 6.4394531 L 18 16.585938 L 15 19.585938 L 15 10.164062 C 15 9.5309385 14.469062 9 13.835938 9 L 4.4140625 9 L 7.4140625 6 z M 6.6210938 14 L 9.3769531 14 C 9.7343768 14 10 14.265272 10 14.621094 L 10 17.376953 C 10 17.734377 9.7347278 18 9.3789062 18 L 6.6210938 18 C 6.2652723 18 6 17.734728 6 17.378906 L 6 14.623047 C 6 14.265623 6.2652723 14 6.6210938 14 z"/></svg>